<mxfile host="app.diagrams.net" agent="Mozilla/5.0 (Windows NT 10.0; Win64; x64) AppleWebKit/537.36 (KHTML, like Gecko) Chrome/131.0.0.0 Safari/537.36" version="26.0.2">
  <diagram name="Page-1" id="GcWvbPAlhIw0g0ZvqtAk">
    <mxGraphModel dx="1434" dy="738" grid="1" gridSize="10" guides="1" tooltips="1" connect="1" arrows="1" fold="1" page="1" pageScale="1" pageWidth="850" pageHeight="1100" math="0" shadow="0">
      <root>
        <mxCell id="0" />
        <mxCell id="1" parent="0" />
        <mxCell id="YTBElolnwNq_OoOBHl4_-11" style="edgeStyle=orthogonalEdgeStyle;rounded=0;orthogonalLoop=1;jettySize=auto;html=1;exitX=0.5;exitY=1;exitDx=0;exitDy=0;" edge="1" parent="1" source="YTBElolnwNq_OoOBHl4_-1" target="YTBElolnwNq_OoOBHl4_-5">
          <mxGeometry relative="1" as="geometry" />
        </mxCell>
        <mxCell id="YTBElolnwNq_OoOBHl4_-14" style="edgeStyle=orthogonalEdgeStyle;rounded=0;orthogonalLoop=1;jettySize=auto;html=1;exitX=0.5;exitY=1;exitDx=0;exitDy=0;entryX=0.5;entryY=0;entryDx=0;entryDy=0;" edge="1" parent="1" source="YTBElolnwNq_OoOBHl4_-1" target="YTBElolnwNq_OoOBHl4_-2">
          <mxGeometry relative="1" as="geometry" />
        </mxCell>
        <mxCell id="YTBElolnwNq_OoOBHl4_-18" style="edgeStyle=orthogonalEdgeStyle;rounded=0;orthogonalLoop=1;jettySize=auto;html=1;exitX=0.5;exitY=1;exitDx=0;exitDy=0;entryX=0.5;entryY=0;entryDx=0;entryDy=0;" edge="1" parent="1" source="YTBElolnwNq_OoOBHl4_-1" target="YTBElolnwNq_OoOBHl4_-17">
          <mxGeometry relative="1" as="geometry" />
        </mxCell>
        <mxCell id="YTBElolnwNq_OoOBHl4_-1" value="API" style="rounded=0;whiteSpace=wrap;html=1;" vertex="1" parent="1">
          <mxGeometry x="340" y="140" width="120" height="60" as="geometry" />
        </mxCell>
        <mxCell id="YTBElolnwNq_OoOBHl4_-2" value="Scraper" style="rounded=0;whiteSpace=wrap;html=1;" vertex="1" parent="1">
          <mxGeometry x="160" y="280" width="120" height="60" as="geometry" />
        </mxCell>
        <mxCell id="YTBElolnwNq_OoOBHl4_-13" value="" style="edgeStyle=orthogonalEdgeStyle;rounded=0;orthogonalLoop=1;jettySize=auto;html=1;" edge="1" parent="1" source="YTBElolnwNq_OoOBHl4_-5" target="YTBElolnwNq_OoOBHl4_-12">
          <mxGeometry relative="1" as="geometry" />
        </mxCell>
        <mxCell id="YTBElolnwNq_OoOBHl4_-5" value="Inventory" style="rounded=0;whiteSpace=wrap;html=1;" vertex="1" parent="1">
          <mxGeometry x="340" y="280" width="120" height="60" as="geometry" />
        </mxCell>
        <mxCell id="YTBElolnwNq_OoOBHl4_-8" value="Postgres" style="shape=cylinder3;whiteSpace=wrap;html=1;boundedLbl=1;backgroundOutline=1;size=15;" vertex="1" parent="1">
          <mxGeometry x="190" y="400" width="60" height="80" as="geometry" />
        </mxCell>
        <mxCell id="YTBElolnwNq_OoOBHl4_-9" style="edgeStyle=orthogonalEdgeStyle;rounded=0;orthogonalLoop=1;jettySize=auto;html=1;entryX=0.5;entryY=0;entryDx=0;entryDy=0;entryPerimeter=0;" edge="1" parent="1" source="YTBElolnwNq_OoOBHl4_-2" target="YTBElolnwNq_OoOBHl4_-8">
          <mxGeometry relative="1" as="geometry" />
        </mxCell>
        <mxCell id="YTBElolnwNq_OoOBHl4_-12" value="Postgres" style="shape=cylinder3;whiteSpace=wrap;html=1;boundedLbl=1;backgroundOutline=1;size=15;" vertex="1" parent="1">
          <mxGeometry x="370" y="400" width="60" height="80" as="geometry" />
        </mxCell>
        <mxCell id="YTBElolnwNq_OoOBHl4_-20" style="edgeStyle=orthogonalEdgeStyle;rounded=0;orthogonalLoop=1;jettySize=auto;html=1;exitX=0.5;exitY=1;exitDx=0;exitDy=0;" edge="1" parent="1" source="YTBElolnwNq_OoOBHl4_-17" target="YTBElolnwNq_OoOBHl4_-19">
          <mxGeometry relative="1" as="geometry" />
        </mxCell>
        <mxCell id="YTBElolnwNq_OoOBHl4_-17" value="User" style="whiteSpace=wrap;html=1;" vertex="1" parent="1">
          <mxGeometry x="520" y="280" width="120" height="60" as="geometry" />
        </mxCell>
        <mxCell id="YTBElolnwNq_OoOBHl4_-19" value="Postgres" style="shape=cylinder3;whiteSpace=wrap;html=1;boundedLbl=1;backgroundOutline=1;size=15;" vertex="1" parent="1">
          <mxGeometry x="550" y="400" width="60" height="80" as="geometry" />
        </mxCell>
      </root>
    </mxGraphModel>
  </diagram>
</mxfile>
